<svg width="85" height="85" viewBox="0 0 85 85" fill="none" xmlns="http://www.w3.org/2000/svg">
<path d="M42.64 83.27C53.4184 83.27 63.7554 78.9883 71.3768 71.3668C78.9983 63.7453 83.28 53.4084 83.28 42.63C83.2774 31.8533 78.9945 21.519 71.3733 13.8997C63.7521 6.28034 53.4167 2 42.64 2C31.8633 2 21.5279 6.28034 13.9067 13.8997C6.28555 21.519 2.00265 31.8533 2 42.63C2 53.4084 6.28172 63.7453 13.9032 71.3668C21.5247 78.9883 31.8616 83.27 42.64 83.27Z" stroke="#FACACB" stroke-width="3"/>
<path d="M14.6997 14.6899L70.5796 70.5699" stroke="#FACACB" stroke-width="3"/>
<path d="M70.75 14.5303L14.5396 70.7302" stroke="#FACACB" stroke-width="3"/>
</svg>
