<svg width="150" height="150" viewBox="0 0 72 36" fill="none" xmlns="http://www.w3.org/2000/svg">
<g id="Ebene_1" clip-path="url(#clip0_2_7078)">
<path id="Vector" d="M0 0.730002C0.000987748 0.655731 0.0294934 0.584466 0.0799999 0.530002C0.105684 0.503151 0.136825 0.482116 0.171325 0.468316C0.205825 0.454516 0.242883 0.448271 0.28 0.450002H2.16C2.23268 0.449946 2.30322 0.474633 2.36 0.520002C2.39367 0.543781 2.4212 0.575223 2.44033 0.611736C2.45945 0.648249 2.46962 0.688785 2.47 0.730002V4.2C2.93 3.61 3.39 3.02 3.83 2.44L5.19 0.680002C5.23706 0.611041 5.29846 0.553053 5.37 0.510002C5.43486 0.465553 5.51138 0.441206 5.59 0.440002H8.01C8.12 0.440002 8.17 0.440002 8.17 0.540002C8.15979 0.595137 8.1357 0.646762 8.1 0.690002L5.1 4.69L8.42 9.69C8.46024 9.74197 8.48456 9.8045 8.49 9.87C8.49 9.93 8.49 9.96 8.35 9.96H5.94C5.8626 9.96017 5.7866 9.93944 5.72 9.9C5.64886 9.85554 5.59032 9.79357 5.55 9.72C5.32 9.42 5.12 9.13 4.93 8.85L4.39 7.97C4.22 7.69 4.04 7.41 3.87 7.12L3.28 6.22L2.47 7.16V9.64C2.47 9.83 2.37 9.92 2.16 9.92H0.29C0.1 9.92 0 9.83 0 9.64V0.730002Z" fill="#575656"/>
<path id="Vector_2" d="M12.6996 0.700013C12.6879 0.67115 12.6879 0.638877 12.6996 0.610014L12.7996 0.530013L12.9096 0.470013H13.0196H14.6496C14.6843 0.46838 14.719 0.473734 14.7517 0.485757C14.7843 0.497781 14.8142 0.51623 14.8396 0.540013L14.9496 0.650014L15.1096 1.02001L18.4596 9.64001C18.478 9.67194 18.4877 9.70815 18.4877 9.74501C18.4877 9.78188 18.478 9.81809 18.4596 9.85001C18.4268 9.87848 18.3887 9.9002 18.3476 9.91393C18.3064 9.92765 18.2629 9.93312 18.2196 9.93001H16.3896C16.3142 9.94949 16.235 9.94949 16.1596 9.93001C16.1018 9.87983 16.0601 9.81375 16.0396 9.74001C15.9496 9.53001 15.8696 9.31001 15.7896 9.10001L15.5496 8.45001H12.1596L11.9196 9.10001C11.8296 9.31001 11.7496 9.53001 11.6696 9.74001C11.6532 9.81136 11.612 9.8746 11.5535 9.91853C11.4949 9.96246 11.4227 9.98424 11.3496 9.98001H9.46959C9.39809 9.98294 9.32767 9.96181 9.26959 9.92001C9.24569 9.89415 9.23242 9.86023 9.23242 9.82501C9.23242 9.7898 9.24569 9.75588 9.26959 9.73001L12.6996 0.700013ZM13.8596 3.42001C13.7796 3.64001 13.6896 3.87001 13.6096 4.12001L13.3696 4.88001C13.2896 5.14001 13.1996 5.39001 13.1196 5.64001C13.0396 5.89001 12.9596 6.12001 12.8796 6.34001H14.8796L13.8596 3.42001Z" fill="#575656"/>
<path id="Vector_3" d="M19.7197 0.739973C19.7178 0.701342 19.7239 0.662738 19.7377 0.626595C19.7514 0.590452 19.7725 0.557553 19.7997 0.529973C19.826 0.501174 19.8587 0.478939 19.8952 0.465048C19.9316 0.451156 19.9708 0.445993 20.0097 0.449973H26.3297C26.4106 0.446862 26.4896 0.475578 26.5497 0.529973C26.5996 0.592041 26.6245 0.670484 26.6197 0.749973V2.32997C26.6197 2.4057 26.5951 2.47939 26.5497 2.53997C26.5203 2.57098 26.4845 2.59512 26.4447 2.61068C26.405 2.62624 26.3623 2.63283 26.3197 2.62997H22.1797V4.20997H25.3697C25.4412 4.20705 25.5116 4.22817 25.5697 4.26997C25.5969 4.29324 25.6183 4.32252 25.6321 4.35551C25.646 4.38849 25.652 4.42426 25.6497 4.45997V5.83997C25.6484 5.87412 25.6404 5.90769 25.6261 5.93874C25.6118 5.9698 25.5916 5.99773 25.5665 6.02095C25.5414 6.04417 25.512 6.06222 25.4799 6.07406C25.4479 6.0859 25.4138 6.09131 25.3797 6.08997H22.1797V7.72997H26.4697C26.6597 7.72997 26.7497 7.81997 26.7497 8.01997V9.61997C26.7509 9.64099 26.7469 9.66197 26.7382 9.68113C26.7295 9.70029 26.7163 9.71705 26.6997 9.72997C26.6997 9.84997 26.5997 9.90997 26.4397 9.90997H19.9997C19.9633 9.913 19.9267 9.90833 19.8922 9.89627C19.8577 9.88421 19.8262 9.86503 19.7997 9.83997C19.7703 9.81629 19.7475 9.78546 19.7335 9.75043C19.7195 9.71541 19.7147 9.67737 19.7197 9.63997V0.739973Z" fill="#575656"/>
<path id="Vector_4" d="M29.5001 6.85001L29.7801 7.09001C29.9009 7.19724 30.0277 7.2974 30.1601 7.39001C30.366 7.52278 30.5836 7.63658 30.8101 7.73001C31.0241 7.81111 31.2512 7.8518 31.4801 7.85001C31.6632 7.85244 31.8455 7.82542 32.0201 7.77001C32.1483 7.73079 32.2673 7.66617 32.3701 7.58001C32.4482 7.49962 32.5094 7.40442 32.5501 7.30001C32.5653 7.18719 32.5653 7.07283 32.5501 6.96001C32.5497 6.89462 32.5362 6.82996 32.5105 6.76985C32.4847 6.70974 32.4472 6.65539 32.4001 6.61001C32.2956 6.49827 32.1741 6.40377 32.0401 6.33001C31.8916 6.24993 31.7379 6.17978 31.5801 6.12001L31.2301 5.97001C30.7684 5.81329 30.3203 5.61932 29.8901 5.39001C29.5257 5.21277 29.1889 4.98373 28.8901 4.71001C28.649 4.46826 28.4557 4.1833 28.3201 3.87001C28.1897 3.55299 28.125 3.21278 28.1301 2.87001C28.1241 2.49616 28.2064 2.12616 28.3701 1.79001C28.5424 1.46397 28.7891 1.18307 29.0901 0.970013C29.411 0.72878 29.7737 0.549081 30.1601 0.440013C30.9749 0.208579 31.8351 0.187933 32.6601 0.380013C33.0099 0.476937 33.346 0.618075 33.6601 0.800013L34.0701 1.07001C34.1883 1.15008 34.3018 1.23689 34.4101 1.33001C34.4951 1.40488 34.5752 1.48504 34.6501 1.57001C34.6933 1.62881 34.7208 1.69764 34.7301 1.77001C34.7461 1.81873 34.7461 1.8713 34.7301 1.92001L34.6101 2.08001L33.6101 3.08001C33.5574 3.14305 33.4819 3.18262 33.4001 3.19001C33.3443 3.20441 33.2858 3.20441 33.2301 3.19001C33.1739 3.15033 33.1204 3.10689 33.0701 3.06001L33.0401 2.97001L32.8001 2.77001C32.6928 2.69064 32.5791 2.6204 32.4601 2.56001C32.3421 2.4978 32.2181 2.44755 32.0901 2.41001C31.9604 2.37062 31.8256 2.3504 31.6901 2.35001C31.5569 2.33974 31.4232 2.33974 31.2901 2.35001C31.1792 2.37291 31.0716 2.40987 30.9701 2.46001C30.8784 2.50718 30.7995 2.5758 30.7401 2.66001C30.6867 2.75456 30.6591 2.86146 30.6601 2.97001C30.6578 3.08011 30.6892 3.18827 30.7501 3.28001C30.8261 3.37447 30.9174 3.45559 31.0201 3.52001C31.1608 3.60184 31.308 3.67207 31.4601 3.73001C31.6401 3.79001 31.8401 3.87001 32.0801 3.94001C32.5301 4.09001 32.9401 4.25001 33.3201 4.41001C33.678 4.55745 34.0144 4.75255 34.3201 4.99001C34.5894 5.2066 34.8079 5.4797 34.9601 5.79001C35.1199 6.16163 35.1851 6.56703 35.1501 6.97001C35.155 7.4103 35.0556 7.84549 34.8601 8.24001C34.6759 8.62889 34.4058 8.97083 34.0701 9.24001C33.7238 9.52029 33.3264 9.73083 32.9001 9.86001C32.4284 10.0115 31.9354 10.0858 31.4401 10.08C30.9486 10.0781 30.4612 9.99007 30.0001 9.82001C29.5306 9.64702 29.0866 9.41157 28.6801 9.12001C28.5287 9.00632 28.3851 8.88272 28.2501 8.75001C28.1401 8.63001 28.0401 8.54001 27.9801 8.46001C27.9025 8.39669 27.8494 8.30827 27.8301 8.21001C27.8376 8.16195 27.8547 8.1159 27.8805 8.07465C27.9063 8.0334 27.9402 7.99781 27.9801 7.97001L29.0801 6.91001C29.1432 6.85945 29.2196 6.8282 29.3001 6.82001C29.3394 6.80985 29.3807 6.80985 29.4201 6.82001L29.5001 6.85001Z" fill="#575656"/>
<path id="Vector_5" d="M36.6599 0.739973C36.6567 0.70205 36.6613 0.663869 36.6733 0.627762C36.6853 0.591655 36.7046 0.558381 36.7299 0.529973C36.7563 0.501174 36.789 0.478939 36.8254 0.465048C36.8619 0.451156 36.9011 0.445993 36.9399 0.449973H43.2599C43.2985 0.448666 43.3369 0.455068 43.373 0.468805C43.4091 0.482542 43.442 0.503338 43.4699 0.529973C43.5226 0.591066 43.5511 0.669328 43.5499 0.749973V2.32997C43.5457 2.40657 43.5177 2.47996 43.4699 2.53997C43.4426 2.57077 43.4085 2.59489 43.3704 2.61049C43.3322 2.62608 43.2911 2.63275 43.2499 2.62997H39.1199V4.20997H42.3099C42.3814 4.20705 42.4519 4.22817 42.5099 4.26997C42.5371 4.29324 42.5585 4.32252 42.5724 4.35551C42.5863 4.38849 42.5923 4.42426 42.5899 4.45997V5.83997C42.5864 5.9029 42.5617 5.9628 42.5199 6.00997C42.4936 6.03877 42.4609 6.06101 42.4244 6.0749C42.388 6.08879 42.3488 6.09395 42.3099 6.08997H39.1199V7.72997H43.3999C43.4396 7.7229 43.4804 7.72552 43.5188 7.73759C43.5572 7.74966 43.5921 7.77084 43.6206 7.79931C43.6491 7.82779 43.6703 7.86272 43.6823 7.90114C43.6944 7.93956 43.697 7.98033 43.6899 8.01997V9.61997C43.7029 9.65549 43.7029 9.69446 43.6899 9.72997C43.6899 9.84997 43.5899 9.90997 43.4299 9.90997H36.9399C36.902 9.91319 36.8638 9.90864 36.8277 9.89661C36.7916 9.88457 36.7584 9.8653 36.7299 9.83997C36.7037 9.81422 36.6838 9.78279 36.6717 9.74812C36.6595 9.71344 36.6555 9.67644 36.6599 9.63997V0.739973Z" fill="#575656"/>
<path id="Vector_6" d="M0.990412 12.87C0.987394 12.8325 0.992566 12.7947 1.00557 12.7594C1.01857 12.724 1.0391 12.692 1.06573 12.6653C1.09236 12.6387 1.12445 12.6182 1.15979 12.6052C1.19513 12.5922 1.23288 12.587 1.27041 12.59H3.16041C3.23432 12.5928 3.30499 12.621 3.36041 12.67C3.38963 12.6943 3.41292 12.725 3.42851 12.7596C3.44411 12.7943 3.4516 12.832 3.45041 12.87V19.8H6.96041C7.03183 19.8005 7.10015 19.8293 7.15041 19.88C7.18041 19.9058 7.20412 19.9382 7.21971 19.9746C7.23531 20.011 7.24239 20.0505 7.24041 20.09V21.77C7.23792 21.841 7.20945 21.9086 7.16041 21.96C7.13573 21.9895 7.10524 22.0136 7.07083 22.0308C7.03642 22.048 6.99883 22.058 6.96041 22.06H1.27041C1.23208 22.0672 1.19258 22.0649 1.15533 22.0533C1.11808 22.0418 1.0842 22.0214 1.05662 21.9938C1.02905 21.9662 1.00861 21.9323 0.997071 21.8951C0.985534 21.8578 0.983249 21.8183 0.990412 21.78V12.87Z" fill="#575656"/>
<path id="Vector_7" d="M11.8002 12.84C11.7984 12.8134 11.7984 12.7867 11.8002 12.76L11.8902 12.68C11.9209 12.6506 11.9588 12.6299 12.0002 12.62C12.0363 12.6107 12.0741 12.6107 12.1102 12.62H13.8002C13.8653 12.6185 13.929 12.6397 13.9802 12.68L14.1002 12.8L14.2602 13.16L17.6002 21.79C17.6237 21.82 17.6365 21.8569 17.6365 21.895C17.6365 21.9331 17.6237 21.9701 17.6002 22C17.568 22.0295 17.5301 22.0518 17.4887 22.0656C17.4474 22.0794 17.4036 22.0843 17.3602 22.08H15.5002C15.4191 22.0844 15.3387 22.0635 15.2702 22.02C15.2105 21.9758 15.1681 21.9121 15.1502 21.84L14.9002 21.2L14.6602 20.55H11.2802C11.2002 20.77 11.1102 20.98 11.0302 21.2L10.7902 21.84C10.77 21.9112 10.7266 21.9736 10.6667 22.0171C10.6069 22.0607 10.5341 22.0828 10.4602 22.08H8.58018C8.50868 22.0829 8.43826 22.0618 8.38018 22.02C8.35904 21.991 8.34766 21.956 8.34766 21.92C8.34766 21.8841 8.35904 21.8491 8.38018 21.82L11.8002 12.84ZM12.9602 15.57C12.8802 15.79 12.8002 16.02 12.7202 16.27C12.6402 16.52 12.5502 16.78 12.4702 17.03L12.2302 17.79C12.1402 18.04 12.0602 18.27 11.9802 18.48H13.9802L12.9602 15.57Z" fill="#575656"/>
<path id="Vector_8" d="M24.08 15.27C23.8676 15.1131 23.6312 14.9915 23.38 14.91C23.1265 14.82 22.8589 14.776 22.59 14.78C22.2662 14.7739 21.9449 14.8377 21.6481 14.9672C21.3512 15.0966 21.0858 15.2886 20.87 15.53C20.6562 15.7623 20.4898 16.034 20.38 16.33C20.2577 16.6491 20.1966 16.9883 20.2 17.33C20.1954 17.6718 20.2565 18.0113 20.38 18.33C20.4874 18.6271 20.6541 18.8993 20.87 19.13C21.0799 19.36 21.3353 19.5438 21.62 19.67C21.9351 19.8075 22.2762 19.8758 22.62 19.87C22.7698 19.8799 22.9201 19.8799 23.07 19.87L23.53 19.79V18.05C23.5299 17.9773 23.5546 17.9068 23.6 17.85C23.6539 17.7987 23.7255 17.77 23.8 17.77H25.54C25.6131 17.7763 25.6827 17.8041 25.74 17.85C25.7735 17.8716 25.8011 17.9012 25.8203 17.9361C25.8395 17.971 25.8497 18.0102 25.85 18.05V21.14C25.8465 21.1982 25.8281 21.2545 25.7966 21.3035C25.7651 21.3526 25.7215 21.3927 25.67 21.42C25.4575 21.5564 25.2333 21.6736 25 21.77C24.7511 21.8634 24.4974 21.9435 24.24 22.01C23.9762 22.0721 23.7091 22.1189 23.44 22.15C23.1811 22.181 22.9207 22.1977 22.66 22.2C22.2211 22.1996 21.7842 22.1425 21.36 22.03C20.9548 21.9145 20.5653 21.7499 20.2 21.54C19.8395 21.3246 19.5041 21.0697 19.2 20.78C18.9072 20.4785 18.6521 20.1428 18.44 19.78C18.116 19.2178 17.906 18.5972 17.8219 17.9538C17.7378 17.3103 17.7814 16.6566 17.95 16.03C18.0674 15.6223 18.2318 15.2297 18.44 14.86C19.0813 13.7629 20.1253 12.9593 21.35 12.62C21.7732 12.5028 22.2108 12.4455 22.65 12.45C23.1378 12.4467 23.6234 12.5175 24.09 12.66C24.5425 12.8038 24.9732 13.0091 25.37 13.27C25.438 13.3108 25.4933 13.3697 25.53 13.44C25.5521 13.4761 25.5638 13.5177 25.5638 13.56C25.5638 13.6024 25.5521 13.6439 25.53 13.68L24.53 15.17C24.4868 15.231 24.4281 15.2793 24.36 15.31C24.3147 15.3324 24.2638 15.3406 24.2138 15.3334C24.1638 15.3263 24.1172 15.3042 24.08 15.27Z" fill="#575656"/>
<path id="Vector_9" d="M27.6797 12.89C27.6765 12.852 27.681 12.8139 27.6931 12.7778C27.7051 12.7417 27.7244 12.7084 27.7497 12.68C27.776 12.6512 27.8088 12.6289 27.8452 12.615C27.8817 12.6012 27.9209 12.596 27.9597 12.6H34.2797C34.32 12.5959 34.3608 12.601 34.3988 12.6149C34.4369 12.6287 34.4714 12.651 34.4997 12.68C34.5505 12.7416 34.5756 12.8204 34.5697 12.9V14.48C34.5706 14.5528 34.5458 14.6236 34.4997 14.68C34.4729 14.7147 34.4378 14.7421 34.3976 14.7595C34.3574 14.777 34.3134 14.784 34.2697 14.78H30.1397V16.36H33.3297C33.4012 16.357 33.4716 16.3782 33.5297 16.42C33.5569 16.4432 33.5783 16.4725 33.5922 16.5055C33.6061 16.5385 33.6121 16.5743 33.6097 16.61V17.97C33.6088 18.0335 33.5838 18.0943 33.5397 18.14C33.514 18.1668 33.4829 18.1879 33.4484 18.2017C33.4139 18.2155 33.3768 18.2217 33.3397 18.22H30.1397V19.87H34.4297C34.6197 19.87 34.7097 19.97 34.7097 20.17V21.77C34.7178 21.7872 34.7219 21.806 34.7219 21.825C34.7219 21.844 34.7178 21.8628 34.7097 21.88C34.7097 22 34.6097 22.06 34.4497 22.06H27.9597C27.8978 22.0488 27.8414 22.0171 27.7997 21.97C27.7735 21.9442 27.7536 21.9128 27.7414 21.8781C27.7293 21.8434 27.7253 21.8064 27.7297 21.77L27.6797 12.89Z" fill="#575656"/>
<path id="Vector_10" d="M36.2901 12.89C36.2886 12.814 36.3133 12.7399 36.3601 12.68C36.3864 12.6512 36.4191 12.629 36.4556 12.6151C36.4921 12.6012 36.5313 12.596 36.5701 12.6H40.6901C41.1121 12.5965 41.5304 12.6782 41.9201 12.84C42.2916 13.0003 42.6305 13.2274 42.9201 13.51C43.2054 13.7973 43.4329 14.1368 43.5901 14.51C43.758 14.8876 43.8432 15.2968 43.8401 15.71C43.8417 15.9911 43.8012 16.2709 43.7201 16.54C43.6411 16.7962 43.5303 17.0414 43.3901 17.27C43.249 17.496 43.0811 17.7042 42.8901 17.89C42.7 18.0717 42.4885 18.2296 42.2601 18.36L43.8901 21.45L44.0101 21.66C44.0527 21.722 44.077 21.7948 44.0801 21.87C44.0832 21.899 44.0783 21.9283 44.066 21.9548C44.0537 21.9812 44.0343 22.0038 44.0101 22.02C43.9858 22.0417 43.9572 22.0582 43.9263 22.0685C43.8953 22.0789 43.8626 22.0828 43.8301 22.08H41.6501C41.5788 22.0815 41.5088 22.0605 41.4501 22.02C41.3935 21.9747 41.3546 21.911 41.3401 21.84L39.8001 18.91H38.8001V21.79C38.8001 21.97 38.7001 22.06 38.5101 22.06H36.6101C36.5738 22.0624 36.5373 22.0575 36.503 22.0454C36.4686 22.0334 36.437 22.0146 36.4101 21.99C36.3827 21.9647 36.3613 21.9337 36.3475 21.8991C36.3336 21.8645 36.3277 21.8272 36.3301 21.79L36.2901 12.89ZM41.2901 15.72C41.2917 15.59 41.2679 15.4609 41.2201 15.34C41.1795 15.2102 41.1113 15.0908 41.0201 14.99C40.9395 14.8805 40.8374 14.7887 40.7201 14.72C40.5976 14.6469 40.4615 14.5993 40.3201 14.58H39.9901H38.8001V16.91H40.1801H40.3701C40.5111 16.8955 40.6475 16.8512 40.7701 16.78C40.8853 16.7126 40.987 16.6245 41.0701 16.52C41.1526 16.4148 41.2169 16.2965 41.2601 16.17C41.2912 16.0221 41.2979 15.8701 41.2801 15.72H41.2901Z" fill="#575656"/>
<path id="Vector_11" d="M22.7203 32.37C22.7179 32.3337 22.7229 32.2972 22.7349 32.2629C22.7469 32.2285 22.7658 32.1969 22.7903 32.17C22.8182 32.1434 22.8512 32.1226 22.8873 32.1088C22.9233 32.0951 22.9618 32.0887 23.0003 32.09H24.6903C24.7642 32.0928 24.8349 32.121 24.8903 32.17C24.9195 32.1943 24.9428 32.225 24.9584 32.2596C24.974 32.2943 24.9815 32.332 24.9803 32.37V33.91C24.9836 33.9862 24.9587 34.061 24.9103 34.12C24.883 34.1508 24.8489 34.1749 24.8108 34.1905C24.7726 34.2061 24.7314 34.2128 24.6903 34.21H23.0003C22.8103 34.21 22.7203 34.11 22.7203 33.91V32.37Z" fill="#575656"/>
<path id="Vector_12" d="M34.97 29.49C34.9703 29.9223 34.9131 30.3527 34.8 30.77C34.6871 31.1682 34.5187 31.5486 34.3 31.9C33.8814 32.6061 33.2803 33.1864 32.56 33.58C32.1964 33.7861 31.806 33.9409 31.4 34.04C30.9791 34.1518 30.5455 34.209 30.11 34.21H26.96C26.8904 34.2087 26.822 34.1916 26.76 34.16C26.7272 34.1343 26.7016 34.1005 26.6858 34.0619C26.6701 34.0233 26.6646 33.9813 26.67 33.94V25.04C26.6699 24.9612 26.6944 24.8843 26.74 24.82C26.8 24.7656 26.879 24.7369 26.96 24.74H30.11C30.5451 24.7377 30.9786 24.7915 31.4 24.9C31.8063 25.0077 32.1964 25.1691 32.56 25.38C32.9228 25.58 33.2589 25.8253 33.56 26.11C33.8566 26.3895 34.1124 26.7093 34.32 27.06C34.5286 27.4176 34.6899 27.8008 34.8 28.2C34.9179 28.6197 34.9751 29.0541 34.97 29.49ZM29.14 27.03V31.97H29.96H30.24C30.5487 31.9516 30.851 31.8735 31.13 31.74C31.6749 31.4885 32.1064 31.0428 32.34 30.49C32.4578 30.1943 32.5155 29.8782 32.51 29.56C32.5186 29.2159 32.4503 28.8742 32.31 28.56C32.1815 28.2675 31.9959 28.0036 31.7641 27.7838C31.5322 27.5641 31.2589 27.3927 30.96 27.28C30.6412 27.1565 30.3018 27.0954 29.96 27.1L29.14 27.03Z" fill="#575656"/>
<path id="Vector_13" d="M36.6298 25.04C36.6298 24.9612 36.6542 24.8843 36.6998 24.82C36.7277 24.7934 36.7607 24.7726 36.7967 24.7588C36.8328 24.7451 36.8712 24.7387 36.9098 24.74H43.2298C43.2709 24.7372 43.3121 24.7439 43.3502 24.7595C43.3884 24.7751 43.4224 24.7992 43.4498 24.83C43.5042 24.8901 43.5329 24.969 43.5298 25.05V26.63C43.527 26.7039 43.4988 26.7746 43.4498 26.83C43.424 26.8632 43.3904 26.8897 43.3521 26.9071C43.3138 26.9245 43.2718 26.9324 43.2298 26.93H39.0998V28.51H42.2798C42.3513 28.5071 42.4217 28.5282 42.4798 28.57C42.5091 28.5914 42.5321 28.6204 42.5462 28.6539C42.5603 28.6874 42.565 28.724 42.5598 28.76V30.14C42.5571 30.2031 42.5323 30.2633 42.4898 30.31C42.4645 30.3374 42.4335 30.3588 42.3989 30.3726C42.3642 30.3865 42.327 30.3924 42.2898 30.39H39.0998V32.02H43.3798C43.419 32.0151 43.4589 32.0193 43.4963 32.0321C43.5337 32.045 43.5677 32.0662 43.5956 32.0942C43.6236 32.1221 43.6448 32.1561 43.6577 32.1935C43.6705 32.2309 43.6747 32.2707 43.6698 32.31V33.97C43.669 33.9917 43.6632 34.013 43.6528 34.0321C43.6424 34.0512 43.6277 34.0676 43.6098 34.08C43.6098 34.2 43.5098 34.26 43.3498 34.26H36.9098C36.8371 34.2601 36.7666 34.2354 36.7098 34.19C36.6816 34.1632 36.6598 34.1304 36.6459 34.0941C36.6321 34.0577 36.6266 34.0188 36.6298 33.98V25.04Z" fill="#575656"/>
<path id="Vector_14" d="M49.7998 13.97C51.3998 11.91 52.9798 9.88 54.5198 7.87C56.0598 5.86 57.7198 3.74001 59.3498 1.62001C59.4885 1.40957 59.6648 1.22651 59.8698 1.08C57.9432 0.400372 55.9127 0.0619685 53.8698 0.0800049C52.5017 0.055422 51.1355 0.193048 49.7998 0.490005V13.97Z" fill="#575656"/>
<path id="Vector_15" d="M58.4298 30.42C57.7698 29.42 57.1398 28.42 56.5198 27.42L54.6398 24.42C53.9998 23.42 53.3098 22.34 52.5498 21.22L49.7998 24.41V34.61C53.4478 35.4906 57.2821 35.1787 60.7398 33.72L60.6198 33.54C59.8198 32.4466 59.0898 31.4066 58.4298 30.42Z" fill="#575656"/>
<path id="Vector_16" d="M66.6998 5.53003L59.0098 15.67L67.5698 28.56C70.2221 25.2656 71.5948 21.1238 71.4349 16.8974C71.275 12.671 69.5934 8.64465 66.6998 5.56003V5.53003Z" fill="#575656"/>
<path id="Vector_17" d="M42.7197 33.78V34.21H43.3697C43.4108 34.2128 43.452 34.2061 43.4902 34.1905C43.5283 34.1749 43.5624 34.1508 43.5897 34.12C43.6176 34.0909 43.6391 34.0563 43.6529 34.0185C43.6667 33.9806 43.6724 33.9402 43.6697 33.9V33.78H42.7197Z" fill="#575656"/>
<path id="Vector_18" d="M33.7998 21.63V22.06H34.4498C34.5308 22.0631 34.6097 22.0344 34.6698 21.98C34.7212 21.9149 34.7462 21.8327 34.7398 21.75V21.63H33.7998Z" fill="#575656"/>
<path id="Vector_19" d="M25.7998 9.47998V9.90998H26.4498C26.5308 9.91309 26.6097 9.88437 26.6698 9.82998C26.7197 9.76791 26.7447 9.68947 26.7398 9.60998V9.47998H25.7998Z" fill="#575656"/>
</g>
<defs>
<clipPath id="clip0_2_7078">
<rect width="71.45" height="35.1" fill="white"/>
</clipPath>
</defs>
</svg>
