<svg width="86" height="85" viewBox="0 0 86 85" fill="none" xmlns="http://www.w3.org/2000/svg">
<g id="Group">
<path id="Vector" d="M42.9199 83.46C48.2572 83.4613 53.5426 82.411 58.4739 80.3691C63.4051 78.3273 67.8856 75.3337 71.6597 71.5597C75.4337 67.7857 78.4272 63.305 80.4691 58.3738C82.511 53.4425 83.5614 48.1572 83.5601 42.8199C83.5601 37.4835 82.5088 32.1994 80.4663 27.2693C78.4238 22.3392 75.4302 17.8596 71.6562 14.0867C67.8823 10.3137 63.4021 7.32117 58.4714 5.27991C53.5408 3.23865 48.2564 2.18863 42.9199 2.18994C32.1442 2.18994 21.8098 6.47061 14.1902 14.0902C6.57058 21.7098 2.29004 32.0442 2.29004 42.8199C2.28873 48.1564 3.33862 53.4408 5.37988 58.3715C7.42114 63.3021 10.4138 67.7822 14.1868 71.5562C17.9597 75.3301 22.439 78.3237 27.3691 80.3662C32.2993 82.4087 37.5835 83.46 42.9199 83.46Z" fill="#FACACB"/>
<path id="Vector_2" d="M42.9199 83.46C48.2572 83.4613 53.5426 82.411 58.4739 80.3691C63.4051 78.3273 67.8856 75.3337 71.6597 71.5597C75.4337 67.7857 78.4272 63.305 80.4691 58.3738C82.511 53.4425 83.5614 48.1572 83.5601 42.8199C83.5601 37.4835 82.5088 32.1994 80.4663 27.2693C78.4238 22.3392 75.4302 17.8596 71.6562 14.0867C67.8823 10.3137 63.402 7.32117 58.4714 5.27991C53.5408 3.23865 48.2564 2.18863 42.9199 2.18994C32.1442 2.18994 21.8098 6.47061 14.1902 14.0902C6.57058 21.7098 2.29004 32.0442 2.29004 42.8199C2.28873 48.1564 3.33862 53.4408 5.37988 58.3715C7.42114 63.3021 10.4138 67.7822 14.1868 71.5562C17.9597 75.3301 22.439 78.3237 27.3691 80.3662C32.2993 82.4087 37.5835 83.46 42.9199 83.46Z" stroke="#FACACB" stroke-width="3"/>
</g>
</svg>
